<svg id="mermaidChart0" width="100%" xmlns="http://www.w3.org/2000/svg" height="100%" style="max-width:1373.203125px;" viewBox="-50 -10 1373.203125 906"><style>
  .mermaid .label{color:#333}.node circle,.node ellipse,.node polygon,.node rect{fill:#ececff;stroke:#ccf;stroke-width:1px}.arrowheadPath{fill:#333}.edgePath .path{stroke:#333}.edgeLabel{background-color:#e8e8e8}.cluster rect{fill:#ffffde!important;rx:4!important;stroke:#aa3!important;stroke-width:1px!important}.cluster text{fill:#333}.actor{stroke:#ccf;fill:#ececff}text.actor{fill:#000;stroke:none}.actor-line{stroke:grey}.messageLine0{marker-end:"url(#arrowhead)"}.messageLine0,.messageLine1{stroke-width:1.5;stroke-dasharray:"2 2";stroke:#333}#arrowhead{fill:#333}#crosshead path{fill:#333!important;stroke:#333!important}.messageText{fill:#333;stroke:none}.labelBox{stroke:#ccf;fill:#ececff}.labelText,.loopText{fill:#000;stroke:none}.loopLine{stroke-width:2;stroke-dasharray:"2 2";marker-end:"url(#arrowhead)";stroke:#ccf}.note{stroke:#aa3;fill:#fff5ad}.noteText{fill:#000;stroke:none;font-family:trebuchet ms,verdana,arial;font-size:14px}.section{stroke:none;opacity:.2}.section0{fill:rgba(102,102,255,.49)}.section2{fill:#fff400}.section1,.section3{fill:#fff;opacity:.2}.sectionTitle0,.sectionTitle1,.sectionTitle2,.sectionTitle3{fill:#333}.sectionTitle{text-anchor:start;font-size:11px;text-height:14px}.grid .tick{stroke:#d3d3d3;opacity:.3;shape-rendering:crispEdges}.grid path{stroke-width:0}.today{fill:none;stroke:red;stroke-width:2px}.task{stroke-width:2}.taskText{text-anchor:middle;font-size:11px}.taskTextOutsideRight{fill:#000;text-anchor:start;font-size:11px}.taskTextOutsideLeft{fill:#000;text-anchor:end;font-size:11px}.taskText0,.taskText1,.taskText2,.taskText3{fill:#fff}.task0,.task1,.task2,.task3{fill:#8a90dd;stroke:#534fbc}.taskTextOutside0,.taskTextOutside1,.taskTextOutside2,.taskTextOutside3{fill:#000}.active0,.active1,.active2,.active3{fill:#bfc7ff;stroke:#534fbc}.activeText0,.activeText1,.activeText2,.activeText3{fill:#000!important}.done0,.done1,.done2,.done3{stroke:grey;fill:#d3d3d3;stroke-width:2}.doneText0,.doneText1,.doneText2,.doneText3{fill:#000!important}.crit0,.crit1,.crit2,.crit3{stroke:#f88;fill:red;stroke-width:2}.activeCrit0,.activeCrit1,.activeCrit2,.activeCrit3{stroke:#f88;fill:#bfc7ff;stroke-width:2}.doneCrit0,.doneCrit1,.doneCrit2,.doneCrit3{stroke:#f88;fill:#d3d3d3;stroke-width:2;cursor:pointer;shape-rendering:crispEdges}.activeCritText0,.activeCritText1,.activeCritText2,.activeCritText3,.doneCritText0,.doneCritText1,.doneCritText2,.doneCritText3{fill:#000!important}.titleText{text-anchor:middle;font-size:18px;fill:#000}g.classGroup text{fill:#9370db;stroke:none;font-family:trebuchet ms,verdana,arial;font-size:10px}g.classGroup rect{fill:#ececff;stroke:#9370db}g.classGroup line{stroke:#9370db;stroke-width:1}svg .classLabel .box{stroke:none;stroke-width:0;fill:#ececff;opacity:.5}svg .classLabel .label{fill:#9370db;font-size:10px}.relation{stroke:#9370db;stroke-width:1;fill:none}#compositionEnd,#compositionStart,.composition{fill:#9370db;stroke:#9370db;stroke-width:1}#aggregationEnd,#aggregationStart,.aggregation{fill:#ececff;stroke:#9370db;stroke-width:1}#dependencyEnd,#dependencyStart,#extensionEnd,#extensionStart{fill:#9370db;stroke:#9370db;stroke-width:1}.node text{font-size:14px}.node text,div.mermaidTooltip{font-family:trebuchet ms,verdana,arial}div.mermaidTooltip{position:absolute;text-align:center;max-width:200px;padding:2px;font-size:12px;background:#ffffde;border:1px solid #aa3;border-radius:2px;pointer-events:none;z-index:100}
svg {
  color: rgb(0, 0, 0);
  font: normal normal 400 normal 16px / normal Menlo, Monaco, "Courier New", monospace;
}
  </style><g></g><g><line id="actor0" x1="75" y1="5" x2="75" y2="895" class="actor-line" stroke-width="0.5px" stroke="#999"></line><rect x="0" y="0" fill="#eaeaea" stroke="#666" width="150" height="65" rx="3" ry="3" class="actor"></rect><text x="75" y="23" dominant-baseline="central" alignment-baseline="central" class="actor" style="text-anchor: middle;"><tspan x="75">ConsumerThre</tspan><tspan dy="19" x="75">ad("default")</tspan></text></g><g><line id="actor1" x1="275" y1="5" x2="275" y2="895" class="actor-line" stroke-width="0.5px" stroke="#999"></line><rect x="200" y="0" fill="#eaeaea" stroke="#666" width="150" height="65" rx="3" ry="3" class="actor"></rect><text x="275" y="32.5" dominant-baseline="central" alignment-baseline="central" class="actor" style="text-anchor: middle;"><tspan x="275" dy="0">RabbitMQ</tspan></text></g><g><line id="actor2" x1="475" y1="5" x2="475" y2="895" class="actor-line" stroke-width="0.5px" stroke="#999"></line><rect x="400" y="0" fill="#eaeaea" stroke="#666" width="150" height="65" rx="3" ry="3" class="actor"></rect><text x="475" y="23" dominant-baseline="central" alignment-baseline="central" class="actor" style="text-anchor: middle;"><tspan x="475">WorkQueue in</tspan><tspan dy="19" x="475">memory</tspan></text></g><g><line id="actor3" x1="675" y1="5" x2="675" y2="895" class="actor-line" stroke-width="0.5px" stroke="#999"></line><rect x="600" y="0" fill="#eaeaea" stroke="#666" width="150" height="65" rx="3" ry="3" class="actor"></rect><text x="675" y="23" dominant-baseline="central" alignment-baseline="central" class="actor" style="text-anchor: middle;"><tspan x="675">AcksQueue in</tspan><tspan dy="19" x="675">memory</tspan></text></g><g><line id="actor4" x1="875" y1="5" x2="875" y2="895" class="actor-line" stroke-width="0.5px" stroke="#999"></line><rect x="800" y="0" fill="#eaeaea" stroke="#666" width="150" height="65" rx="3" ry="3" class="actor"></rect><text x="875" y="32.5" dominant-baseline="central" alignment-baseline="central" class="actor" style="text-anchor: middle;"><tspan x="875" dy="0">WorkerThread1</tspan></text></g><g><line id="actor5" x1="1075" y1="5" x2="1075" y2="895" class="actor-line" stroke-width="0.5px" stroke="#999"></line><rect x="1000" y="0" fill="#eaeaea" stroke="#666" width="150" height="65" rx="3" ry="3" class="actor"></rect><text x="1075" y="32.5" dominant-baseline="central" alignment-baseline="central" class="actor" style="text-anchor: middle;"><tspan x="1075" dy="0">WorkerThread2</tspan></text></g><defs><marker id="arrowhead" refX="5" refY="2" markerWidth="6" markerHeight="4" orient="auto"><path d="M 0,0 V 4 L6,2 Z"></path></marker></defs><defs><marker id="crosshead" markerWidth="15" markerHeight="8" orient="auto" refX="16" refY="4"><path fill="black" stroke="#000000" stroke-width="1px" d="M 9,2 V 6 L16,4 Z" style="stroke-dasharray: 0, 0;"></path><path fill="none" stroke="#000000" stroke-width="1px" d="M 0,1 L 6,7 M 6,1 L 0,7" style="stroke-dasharray: 0, 0;"></path></marker></defs><g><text x="175" y="118" class="messageText" style="text-anchor: middle;">get_message(queue_name="default", block=True)</text><line x1="75" y1="125" x2="275" y2="125" class="messageLine0" stroke-width="2" stroke="black" marker-end="url(#arrowhead)" style="fill: none;"></line></g><g></g><g><text x="172.5" y="153" class="messageText" style="text-anchor: middle;">Message(id=1, {...})</text><line x1="270" y1="160" x2="75" y2="160" class="messageLine1" stroke-width="2" stroke="black" marker-end="url(#arrowhead)" style="stroke-dasharray: 3, 3; fill: none;"></line></g><g><text x="275" y="188" class="messageText" style="text-anchor: middle;">put_work(Message(id=1, {...}))</text><line x1="75" y1="195" x2="475" y2="195" class="messageLine0" stroke-width="2" stroke="black" marker-end="url(#arrowhead)" style="fill: none;"></line></g><g><text x="375" y="248" class="messageText" style="text-anchor: middle;">get_pending_ack()</text><line x1="75" y1="255" x2="675" y2="255" class="messageLine0" stroke-width="2" stroke="black" marker-end="url(#arrowhead)" style="fill: none;"></line></g><g><text x="375" y="283" class="messageText" style="text-anchor: middle;">Message(id=1, {...})</text><line x1="675" y1="290" x2="75" y2="290" class="messageLine1" stroke-width="2" stroke="black" marker-end="url(#arrowhead)" style="stroke-dasharray: 3, 3; fill: none;"></line></g><g><text x="172.5" y="318" class="messageText" style="text-anchor: middle;">ack_message(id=1)</text><line x1="75" y1="325" x2="270" y2="325" class="messageLine0" stroke-width="2" stroke="black" marker-end="url(#arrowhead)" style="fill: none;"></line></g><g><line x1="65" y1="205" x2="685" y2="205" class="loopLine"></line><line x1="685" y1="205" x2="685" y2="335" class="loopLine"></line><line x1="65" y1="335" x2="685" y2="335" class="loopLine"></line><line x1="65" y1="205" x2="65" y2="335" class="loopLine"></line><polygon points="65,205 115,205 115,218 106.6,225 65,225" class="labelBox"></polygon><text x="72.5" y="220" fill="black" class="labelText"><tspan x="72.5" fill="black">loop</tspan></text><text x="375" y="220" fill="black" class="loopText" style="text-anchor: middle;"><tspan x="375" fill="black">[ while pending acks ]</tspan></text></g><g><line x1="55" y1="75" x2="695" y2="75" class="loopLine"></line><line x1="695" y1="75" x2="695" y2="345" class="loopLine"></line><line x1="55" y1="345" x2="695" y2="345" class="loopLine"></line><line x1="55" y1="75" x2="55" y2="345" class="loopLine"></line><polygon points="55,75 105,75 105,88 96.6,95 55,95" class="labelBox"></polygon><text x="62.5" y="90" fill="black" class="labelText"><tspan x="62.5" fill="black">loop</tspan></text><text x="375" y="90" fill="black" class="loopText" style="text-anchor: middle;"><tspan x="375" fill="black">[ while running, read messages off the broker and put them on the work queue ]</tspan></text></g><g><text x="675" y="423" class="messageText" style="text-anchor: middle;">get_work(block=True)</text><line x1="875" y1="430" x2="475" y2="430" class="messageLine0" stroke-width="2" stroke="black" marker-end="url(#arrowhead)" style="fill: none;"></line></g><g><text x="675" y="458" class="messageText" style="text-anchor: middle;">Message(id=2, { ... })</text><line x1="475" y1="465" x2="875" y2="465" class="messageLine1" stroke-width="2" stroke="black" marker-end="url(#arrowhead)" style="stroke-dasharray: 3, 3; fill: none;"></line></g><g><text x="875" y="493" class="messageText" style="text-anchor: middle;">process_message(Message(id=2, {...}))</text><path d="M 875,500 C 935,490 935,530 875,520" class="messageLine0" stroke-width="2" stroke="black" marker-end="url(#arrowhead)" style="fill: none;"></path></g><g><text x="775" y="558" class="messageText" style="text-anchor: middle;">ack_message(Message(id=2, { ... }))</text><line x1="875" y1="565" x2="675" y2="565" class="messageLine0" stroke-width="2" stroke="black" marker-end="url(#arrowhead)" style="fill: none;"></line></g><g><line x1="465" y1="380" x2="1063.203125" y2="380" class="loopLine"></line><line x1="1063.203125" y1="380" x2="1063.203125" y2="575" class="loopLine"></line><line x1="465" y1="575" x2="1063.203125" y2="575" class="loopLine"></line><line x1="465" y1="380" x2="465" y2="575" class="loopLine"></line><polygon points="465,380 515,380 515,393 506.6,400 465,400" class="labelBox"></polygon><text x="472.5" y="395" fill="black" class="labelText"><tspan x="472.5" fill="black">loop</tspan></text><text x="764.1015625" y="395" fill="black" class="loopText" style="text-anchor: middle;"><tspan x="764.1015625" fill="black">[ while running, process work ]</tspan></text></g><g><text x="775" y="648" class="messageText" style="text-anchor: middle;">get_work(block=True)</text><line x1="1075" y1="655" x2="475" y2="655" class="messageLine0" stroke-width="2" stroke="black" marker-end="url(#arrowhead)" style="fill: none;"></line></g><g><text x="775" y="683" class="messageText" style="text-anchor: middle;">Message(id=1, { ... })</text><line x1="475" y1="690" x2="1075" y2="690" class="messageLine1" stroke-width="2" stroke="black" marker-end="url(#arrowhead)" style="stroke-dasharray: 3, 3; fill: none;"></line></g><g><text x="1075" y="718" class="messageText" style="text-anchor: middle;">process_message(Message(id=1, {...}))</text><path d="M 1075,725 C 1135,715 1135,755 1075,745" class="messageLine0" stroke-width="2" stroke="black" marker-end="url(#arrowhead)" style="fill: none;"></path></g><g><text x="875" y="783" class="messageText" style="text-anchor: middle;">ack_message(Message(id=1, { ... }))</text><line x1="1075" y1="790" x2="675" y2="790" class="messageLine0" stroke-width="2" stroke="black" marker-end="url(#arrowhead)" style="fill: none;"></line></g><g><line x1="465" y1="605" x2="1263.203125" y2="605" class="loopLine"></line><line x1="1263.203125" y1="605" x2="1263.203125" y2="800" class="loopLine"></line><line x1="465" y1="800" x2="1263.203125" y2="800" class="loopLine"></line><line x1="465" y1="605" x2="465" y2="800" class="loopLine"></line><polygon points="465,605 515,605 515,618 506.6,625 465,625" class="labelBox"></polygon><text x="472.5" y="620" fill="black" class="labelText"><tspan x="472.5" fill="black">loop</tspan></text><text x="864.1015625" y="620" fill="black" class="loopText" style="text-anchor: middle;"><tspan x="864.1015625" fill="black">[ while running, process work ]</tspan></text></g><g><line x1="455" y1="355" x2="1273.203125" y2="355" class="loopLine"></line><line x1="1273.203125" y1="355" x2="1273.203125" y2="810" class="loopLine"></line><line x1="455" y1="810" x2="1273.203125" y2="810" class="loopLine"></line><line x1="455" y1="355" x2="455" y2="810" class="loopLine"></line><line x1="455" y1="585" x2="1273.203125" y2="585" class="loopLine" style="stroke-dasharray: 3, 3;"></line><polygon points="455,355 505,355 505,368 496.6,375 455,375" class="labelBox"></polygon><text x="462.5" y="370" fill="black" class="labelText"><tspan x="462.5" fill="black">alt</tspan></text><text x="864.1015625" y="370" fill="black" class="loopText" style="text-anchor: middle;"><tspan x="864.1015625" fill="black">[ concurrently ]</tspan></text></g><g><rect x="0" y="830" fill="#eaeaea" stroke="#666" width="150" height="65" rx="3" ry="3" class="actor"></rect><text x="75" y="853" dominant-baseline="central" alignment-baseline="central" class="actor" style="text-anchor: middle;"><tspan x="75">ConsumerThre</tspan><tspan dy="19" x="75">ad("default")</tspan></text></g><g><rect x="200" y="830" fill="#eaeaea" stroke="#666" width="150" height="65" rx="3" ry="3" class="actor"></rect><text x="275" y="862.5" dominant-baseline="central" alignment-baseline="central" class="actor" style="text-anchor: middle;"><tspan x="275" dy="0">RabbitMQ</tspan></text></g><g><rect x="400" y="830" fill="#eaeaea" stroke="#666" width="150" height="65" rx="3" ry="3" class="actor"></rect><text x="475" y="853" dominant-baseline="central" alignment-baseline="central" class="actor" style="text-anchor: middle;"><tspan x="475">WorkQueue in</tspan><tspan dy="19" x="475">memory</tspan></text></g><g><rect x="600" y="830" fill="#eaeaea" stroke="#666" width="150" height="65" rx="3" ry="3" class="actor"></rect><text x="675" y="853" dominant-baseline="central" alignment-baseline="central" class="actor" style="text-anchor: middle;"><tspan x="675">AcksQueue in</tspan><tspan dy="19" x="675">memory</tspan></text></g><g><rect x="800" y="830" fill="#eaeaea" stroke="#666" width="150" height="65" rx="3" ry="3" class="actor"></rect><text x="875" y="862.5" dominant-baseline="central" alignment-baseline="central" class="actor" style="text-anchor: middle;"><tspan x="875" dy="0">WorkerThread1</tspan></text></g><g><rect x="1000" y="830" fill="#eaeaea" stroke="#666" width="150" height="65" rx="3" ry="3" class="actor"></rect><text x="1075" y="862.5" dominant-baseline="central" alignment-baseline="central" class="actor" style="text-anchor: middle;"><tspan x="1075" dy="0">WorkerThread2</tspan></text></g></svg>